HIERARCHY
ROOT Hips
{
 OFFSET 0.000000 0.000000 0.000000
 CHANNELS 6 Xposition Yposition Zposition Yrotation Xrotation Zrotation
 JOINT Chest
 {
  OFFSET 0.000000 9.585900 0.002600
  CHANNELS 3 Yrotation Xrotation Zrotation
  JOINT Chest2
  {
   OFFSET 0.000000 9.601200 -0.005300
   CHANNELS 3 Yrotation Xrotation Zrotation
   JOINT Chest3
   {
    OFFSET 0.000000 9.561800 0.000000
    CHANNELS 3 Yrotation Xrotation Zrotation
    JOINT Chest4
    {
     OFFSET 0.000000 9.552100 0.000000
     CHANNELS 3 Yrotation Xrotation Zrotation
     JOINT Neck
     {
      OFFSET 0.000000 14.453000 0.000000
      CHANNELS 3 Yrotation Xrotation Zrotation
      JOINT Head
      {
       OFFSET 0.000000 8.936500 -0.011300
       CHANNELS 3 Yrotation Xrotation Zrotation
       End Site
       {
        OFFSET 0.000000 17.073600 -0.006000
       }
      }
     }
     JOINT RightCollar
     {
      OFFSET -2.921100 9.558500 0.000000
      CHANNELS 3 Yrotation Xrotation Zrotation
      JOINT RightShoulder
      {
       OFFSET -13.519700 0.000000 0.000000
       CHANNELS 3 Yrotation Xrotation Zrotation
       JOINT RightElbow
       {
        OFFSET 0.000000 -29.696600 0.000000
        CHANNELS 3 Yrotation Xrotation Zrotation
        JOINT RightWrist
        {
         OFFSET 0.000000 -24.004700 0.000000
         CHANNELS 3 Yrotation Xrotation Zrotation
         End Site
         {
          OFFSET 0.000000 -17.728500 0.000000
         }
        }
       }
      }
     }
     JOINT LeftCollar
     {
      OFFSET 2.921100 9.558500 0.000000
      CHANNELS 3 Yrotation Xrotation Zrotation
      JOINT LeftShoulder
      {
       OFFSET 13.519700 0.000000 0.000000
       CHANNELS 3 Yrotation Xrotation Zrotation
       JOINT LeftElbow
       {
        OFFSET 0.000000 -29.696600 0.000000
        CHANNELS 3 Yrotation Xrotation Zrotation
        JOINT LeftWrist
        {
         OFFSET 0.000000 -24.004700 0.000000
         CHANNELS 3 Yrotation Xrotation Zrotation
         End Site
         {
          OFFSET 0.000000 -17.728500 0.000000
         }
        }
       }
      }
     }
    }
   }
  }
 }
 JOINT RightHip
 {
  OFFSET -7.771700 -0.012900 -0.001300
  CHANNELS 3 Yrotation Xrotation Zrotation
  JOINT RightKnee
  {
   OFFSET 0.000000 -40.869800 0.001200
   CHANNELS 3 Yrotation Xrotation Zrotation
   JOINT RightAnkle
   {
    OFFSET 0.000000 -39.717900 0.002100
    CHANNELS 3 Yrotation Xrotation Zrotation
    JOINT RightToe
    {
     OFFSET 0.000000 -4.965400 11.033500
     CHANNELS 3 Yrotation Xrotation Zrotation
     End Site
     {
      OFFSET 0.000000 -1.423100 5.872300
     }
    }
   }
  }
 }
 JOINT LeftHip
 {
  OFFSET 7.771700 -0.012900 -0.001300
  CHANNELS 3 Yrotation Xrotation Zrotation
  JOINT LeftKnee
  {
   OFFSET 0.000000 -40.869800 0.001200
   CHANNELS 3 Yrotation Xrotation Zrotation
   JOINT LeftAnkle
   {
    OFFSET 0.000000 -39.717900 0.002100
    CHANNELS 3 Yrotation Xrotation Zrotation
    JOINT LeftToe
    {
     OFFSET 0.000000 -4.965400 11.033500
     CHANNELS 3 Yrotation Xrotation Zrotation
     End Site
     {
      OFFSET 0.000000 -1.423100 5.872300
     }
    }
   }
  }
 }
}
MOTION
Frames: 5
Frame Time: 0.008333
0.000000 85.388000 0.000000 0.000000 -5.767877 0.000000 0.000000 11.653817 0.000000 0.000000 -5.885947 0.000000 0.000000 -0.000000 0.000000 0.000000 -0.000000 0.000000 0.000000 12.528835 0.000000 0.000000 0.711642 0.000000 0.000000 -0.000000 0.000000 0.000000 0.000000 -90.000000 0.000000 -2.309062 0.000000 0.000000 2.309062 0.000000 0.000000 -0.000000 0.000000 0.000000 -0.000000 90.000000 0.000000 -2.309062 0.000000 0.000000 2.309062 0.000000 0.000000 8.520406 0.000000 0.000000 1.905762 0.000000 -0.000000 -4.658285 0.000000 0.000000 -0.000000 0.000000 0.000000 8.520406 0.000000 0.000000 1.905762 0.000000 -0.000000 -4.658285 0.000000 0.000000 -0.000000 0.000000
-68.410729 55.579585 -34.075592 -175.545030 -14.462153 -1.593398 -0.163235 14.426181 0.717782 -0.018026 1.272155 0.075501 -0.030313 2.159705 0.127127 -0.104892 12.961545 0.764046 0.849504 14.200465 6.694807 -0.644060 -10.693675 7.031017 0.180939 1.322926 0.116106 0.969464 -7.080820 -6.385572 -65.897699 -44.389734 100.970814 -21.592047 -3.073967 -4.021517 -5.153822 -1.237795 1.920700 2.177988 -10.907264 5.521427 49.522074 -39.244637 -94.531432 15.379102 -11.645830 6.228736 -6.003239 -60.645511 12.735097 -28.654748 85.848738 -32.430106 -10.642407 -18.216569 11.527655 0.029249 -0.125718 0.011023 10.119179 -58.036045 -10.645597 91.336276 70.015984 93.784439 2.309067 -19.284115 -4.251704 -0.000057 0.110395 -0.002950
-68.411279 55.580101 -34.075999 -175.553642 -14.457693 -1.589501 -0.156941 14.439635 0.715984 -0.017482 1.274016 0.075468 -0.029488 2.143346 0.126684 -0.103238 12.977732 0.763179 0.847721 14.160538 6.697279 -0.648189 -10.723396 7.034392 0.186228 1.316089 0.120272 0.982813 -7.089604 -6.389647 -65.891018 -44.428640 100.983765 -21.534948 -3.039169 -4.002287 -5.166986 -1.248778 1.938571 2.166303 -10.910119 5.508325 49.518840 -39.249383 -94.532794 15.376534 -11.629982 6.227578 -5.992870 -60.649749 12.730113 -28.686931 85.843339 -32.460721 -10.636880 -18.202404 11.520831 0.023815 -0.122282 0.014172 10.129882 -58.036691 -10.646064 91.328712 70.012458 93.777673 2.296783 -19.289478 -4.253683 0.005286 0.114873 0.000060
-68.411595 55.580792 -34.077638 -175.556181 -14.458047 -1.589114 -0.152740 14.452384 0.718514 -0.017284 1.274704 0.075425 -0.032051 2.140826 0.125495 -0.099052 12.983069 0.761771 0.845371 14.137024 6.699383 -0.650118 -10.757537 7.037276 0.185220 1.328967 0.130097 1.023977 -7.117928 -6.398258 -65.910679 -44.548339 101.020995 -21.537358 -3.046318 -3.999741 -5.181385 -1.248804 1.955385 2.157158 -10.918796 5.494326 49.518917 -39.258088 -94.539297 15.371200 -11.616059 6.226694 -5.984885 -60.649995 12.720449 -28.747113 85.840602 -32.516665 -10.611855 -18.185463 11.511905 0.022077 -0.126872 0.016601 10.129873 -58.032550 -10.644328 91.326558 70.011866 93.779806 2.291893 -19.298127 -4.260250 0.011580 0.120472 0.003023
-68.413150 55.581288 -34.079289 -175.559360 -14.456471 -1.581062 -0.150221 14.456404 0.712445 -0.018003 1.280804 0.076583 -0.028193 2.152991 0.127206 -0.097959 12.972170 0.759150 0.840622 14.117064 6.700208 -0.650932 -10.783736 7.037604 0.186798 1.330212 0.134157 1.053105 -7.130675 -6.402674 -65.952297 -44.626405 101.051172 -21.491682 -3.038983 -3.977108 -5.188926 -1.255579 1.960541 2.143873 -10.919831 5.490823 49.519855 -39.269245 -94.549641 15.366593 -11.602437 6.219236 -5.960516 -60.653299 12.699113 -28.780915 85.837416 -32.543479 -10.628940 -18.169617 11.509493 0.013867 -0.117780 0.016976 10.142277 -58.030571 -10.660439 91.332328 70.007609 93.785235 2.294490 -19.303827 -4.259092 0.009686 0.122561 -0.000184
